# xmcd
#
# Track frame offsets: 
#        150
#        14773
#        37386
#        57956
#        78650
#        106435
#        123386
#        145945
#        154535
#        173736
#        191936
#        209155
#        228961
#        240148
#
# Disc length: 3429 seconds
#
# Revision: 1
# Processed by: cddbd v1.5.2PL0 Copyright (c) Steve Scherf et al.
# Submitted via: ExactAudioCopyFreeDBPlugin 1.0
#
DISCID=c80d630e
DTITLE=Fred Chapellier and friends - a tribute to Roy Buchanan
DYEAR=2007
DGENRE=Blues
TTITLE0=High wire
TTITLE1=I can't lose the blues
TTITLE2=My baby says she's gonna leave me
TTITLE3=After hours
TTITLE4=Blues for Roy
TTITLE5=Further on up the road
TTITLE6=A nickel and a nail
TTITLE7=Reelin' and rockin'
TTITLE8=Beer drinking woman
TTITLE9=The chokin' kind
TTITLE10=That's what I'm here for
TTITLE11=The Messiah will come again
TTITLE12=Rockin' Roy
TTITLE13=That's what I'm here for (instrumental)
EXTD=
EXTT0=
EXTT1=
EXTT2=
EXTT3=
EXTT4=
EXTT5=
EXTT6=
EXTT7=
EXTT8=
EXTT9=
EXTT10=
EXTT11=
EXTT12=
EXTT13=
PLAYORDER=
